<?xml version="1.0" encoding="UTF-8" standalone="no"?>
<svg
   xmlns:dc="http://purl.org/dc/elements/1.1/"
   xmlns:cc="http://creativecommons.org/ns#"
   xmlns:rdf="http://www.w3.org/1999/02/22-rdf-syntax-ns#"
   xmlns:svg="http://www.w3.org/2000/svg"
   xmlns="http://www.w3.org/2000/svg"
   xmlns:sodipodi="http://sodipodi.sourceforge.net/DTD/sodipodi-0.dtd"
   xmlns:inkscape="http://www.inkscape.org/namespaces/inkscape"
   width="441.27499"
   height="1000"
   id="svg4156"
   version="1.1"
   inkscape:version="0.91 r13725"
   sodipodi:docname="NBA.svg">
  <metadata
     id="metadata4170">
    <rdf:RDF>
      <cc:Work
         rdf:about="">
        <dc:format>image/svg+xml</dc:format>
        <dc:type
           rdf:resource="http://purl.org/dc/dcmitype/StillImage" />
        <dc:title></dc:title>
      </cc:Work>
    </rdf:RDF>
  </metadata>
  <defs
     id="defs4168" />
  <sodipodi:namedview
     pagecolor="#ffffff"
     bordercolor="#666666"
     borderopacity="1"
     objecttolerance="10"
     gridtolerance="10"
     guidetolerance="10"
     inkscape:pageopacity="0"
     inkscape:pageshadow="2"
     inkscape:window-width="1366"
     inkscape:window-height="705"
     id="namedview4166"
     showgrid="false"
     inkscape:zoom="0.25000001"
     inkscape:cx="27.856944"
     inkscape:cy="882.57674"
     inkscape:window-x="-8"
     inkscape:window-y="-8"
     inkscape:window-maximized="1"
     inkscape:current-layer="svg4156" />
  <rect
     width="441.27518"
     height="1000"
     rx="104.44631"
     ry="104.44631"
     id="rect4158"
     x="0"
     y="0.00012207031"
     style="fill:#ffffff;stroke:none" />
  <path
     d="m 279.93289,186.64439 c 7.04698,4.2617 10.73825,7.6174 18.02014,12.198 18.99328,12.0973 42.43288,33.4731 39.47986,107.0805 5.41946,16.1074 7.80201,47.6342 12.71812,57.6342 9.88255,19.7987 16.54362,32.6175 19.46309,51.141 0,0 2.86912,29.0772 6.61074,31.1409 19.6812,4.5134 13.95973,6.3591 16.82885,9.9329 3.02014,3.8423 14.51343,3.7081 14.51343,14.3624 3.94295,5.2517 6.92953,10.6376 9.16107,16.4933 l 0,-382.9866 c 0,-43.791902 -35.41946,-79.211402 -79.16107,-79.211402 l -75.52014,0 c 12.14765,4.3121 18.99329,9.5135 23.05369,17.5504 9.68121,0.8221 21.15772,22.651 3.17114,55 7.91947,5.419402 1.77853,13.439502 -3.85906,22.718102 -1.72818,2.8188 -3.54026,8.1376 -8.84228,7.8523 -7.0302,14.5806 -15.30201,28.49 -21.51007,29.3625 -1.81208,2.1811 -3.08724,8.4899 -0.41946,11.359 9.26175,4.1779 20.36913,9.7483 25.9396,15.0671"
     id="path4160"
     inkscape:connector-curvature="0"
     style="fill:#de1633;stroke:none" />
  <path
     d="m 349.42954,974.69809 c 34.63087,-21.0403 13.1208,-60.9228 6.5604,-84.4128 l 1.19127,-4.0604 c 1.86242,-3.2718 -1.87919,-10.7718 -1.87919,-10.7718 -4.26175,-3.6577 -5.21812,-23.2214 -7.51678,-32.198 -3.74161,-14.7818 6.52685,-40.3187 6.52685,-49.0101 0,-8.6576 -6.52685,-20.5872 -18.48994,-35.8724 -2.86913,-3.2383 -11.62751,-77.6007 -19.31208,-96.4598 -10.87248,-25.9396 -14.01007,-21.7617 -26.87919,-52.7013 -9.89933,-21.8121 -2.04698,-53.9429 -24.27853,-128.5235 l 4.94967,-4.5973 c 0,0 -17.71812,-64.698 -23.54027,-82.4329 -5.72148,-17.7013 -16.05705,-18.9094 -16.05705,-18.9094 l 0.62081,-9.0772 c 0.82214,-2.8691 21.5604,-56.8288 23.28859,-58.5402 0.11745,-1.1913 29.93288,-21.5604 30.50335,-18.5403 2.48322,13.2383 14.01007,80.3523 18.94296,91.0738 5,10.7215 22.28188,43.6913 30.25167,64.1443 -30.90604,7.4832 -53.84228,35.3691 -53.84228,68.6242 0,38.9597 31.56041,70.6208 70.5537,70.6208 29.84899,0 55.46979,-18.5235 65.82214,-44.5638 l -0.0671,358.0369 c 0,39.6813 -28.54027,72.2987 -66.59396,78.0873"
     id="path4162"
     inkscape:connector-curvature="0"
     style="fill:#de1633;stroke:none" />
  <path
     d="m 269.86578,920.75519 -2.48323,-25.9397 -19.11074,0 -2.81879,25.9397 -27.29866,0 21.91276,-118.49 36.25839,0 22.19798,118.49 -28.65771,0 z m -83.95974,0 -39.61409,0 0,-118.49 38.69127,0 c 19.88256,0 29.47987,7.6007 29.47987,27.9195 0,12.4496 -1.71141,23.3892 -14.93289,27.9026 l 0,0.2182 c 13.27182,2.3825 18.00336,12.3993 18.00336,27.2986 0,19.8826 -7.33222,35.151 -31.62752,35.151 m -48.89261,0 -26.7282,0 -19.110732,-68.9933 -0.570472,-4.312 -0.31879,0 0,73.2885 -23.691274,0 0,-118.4899 26.728187,0 18.892621,65.151 0.87248,4.7819 0.21812,0 0,-69.9329 23.70806,0 0,118.4899 z m 190.52013,-39.4798 c -12.60067,-11.3926 -4.17785,-16.0571 -4.59731,-20.6712 -8.32215,-34.5973 -35.9396,-55.6208 -21.72819,-67.0637 -3.50672,-11.5101 -10.57047,-25.7383 -10.3188,-25.6712 -42.85235,-24.6812 -79.5302,-64.6644 -85.75503,-70.453 -7.43289,-8.2718 -20.15101,-16.4933 -22.70134,-23.0705 -10.25168,-9.4631 -60.92282,-81.1912 -72.5,-107.5839 l -20.637589,-2.8691 c -9.177848,-38.0537 -40.268455,-70.0503 -41.090604,-108.3389 -0.352349,-14.547 6.577184,-45.3691 9.010067,-51.594 2.449668,-6.1409 14.463089,-16.4094 14.463089,-16.4094 l 0,-10.3523 c -44.697987,1.3087 -31.812081,-3.2886 -39.614094,-20.5873 -5.419463,-12.0805 -1.577182,-14.698 0.369127,-23.1376 5.939598,-24.4127 26.023489,-62.6006 34.261744,-79.8825 2.516782,-8.6913 11.157722,-29.6812 11.157722,-29.6812 33.389258,-67.9866 45.687918,-63.0369 85.251678,-66.745 l 2.13087,-2.8691 c 39.63088,-1.6611 33.17114,-4.7819 38.65772,-42.9195 -5.78859,2.5168 -7.39933,-11.963002 -7.39933,-11.963002 -3.13759,-21.8289 5.97315,-17.7014 10.26846,-18.0538 1.00671,-35.7382 4.58053,-47.0134 30.55369,-56.9295 l -133.77517,0 c -43.65772,0 -79.194632,35.4195 -79.194632,79.194602 l 0,792.9027 c 0,43.6242 35.520135,79.1108 79.194632,79.1108 l 234.02685,0 c -26.76175,-14.5135 -10.82215,-42.0135 -10.03356,-94.3624 m -69.11074,-61.0906 -0.36913,0 -0.0671,2.802 -6.87919,53.1879 13.64094,0 -6.20806,-53.1879 -0.10067,-2.802 z m -67.06376,15.1006 c 0,-8.1711 -1.71141,-12.8188 -8.37248,-12.8188 l -8.52349,0 0,26.7114 7.5,0 c 8.59061,0 9.3792,-6.4429 9.3792,-13.8926 m -8.23826,33.1209 -8.64094,0 0,32.2315 8.02013,0 c 9.16108,0 10.16779,-4.4631 10.16779,-16.1913 0,-8.1711 -1.00671,-16.0402 -9.54698,-16.0402"
     id="path4164"
     inkscape:connector-curvature="0"
     style="fill:#204ba0;stroke:none" />
</svg>
